<?xml version="1.0" encoding="utf-8"?>
<!-- Generator: Adobe Illustrator 26.0.2, SVG Export Plug-In . SVG Version: 6.00 Build 0)  -->
<svg version="1.1" id="Layer_1" xmlns="http://www.w3.org/2000/svg" xmlns:xlink="http://www.w3.org/1999/xlink" x="0px" y="0px"
	 viewBox="0 0 1920 1080" style="enable-background:new 0 0 1920 1080;" xml:space="preserve">
<style type="text/css">
	.st0{fill:#FF3CE6;}
	.st1{fill:#03FFAB;}
	.st2{fill:#4F3CC9;}
	.st3{opacity:0.45;}
	.st4{fill:#97FFD9;}
	.st5{opacity:0.5;}
	.st6{fill:#FCB4F7;}
	.st7{fill:#F79CF5;}
	.st8{fill:#26B581;}
	.st9{fill:#FFFFFF;}
	.st10{fill:#F582AE;}
	.st11{fill:#4F3CC9;stroke:#FFFFFF;stroke-width:2;stroke-miterlimit:10;}
	.st12{font-family:'Arial-BoldMT';}
	.st13{font-size:127.9465px;}
</style>
<g>
	<rect id="BG" width="1920" height="1080"/>
	<g id="Number_4_1_">
		<g>
			<g>
				<path class="st0" d="M646.8,669.8V320.4h-75.6L320.4,677.4v54.8h256.3V879h70.1V732.2h57v-62.4H646.8z M576.7,674.1H389.4
					l187.3-273.8V674.1z"/>
			</g>
			<g>
				<path class="st1" d="M650.9,883h-78.2V736.2H316.4v-60.1l0.7-1l252-358.8h81.7v349.4h57v70.5h-57V883z M580.8,874.9h62V728.2h57
					v-54.4h-57V324.4h-69.4L324.5,678.7v49.5h256.3V874.9z M580.8,678.2h-199l199-290.9V678.2z M397.1,670.1h175.6V413.4
					L397.1,670.1z"/>
			</g>
		</g>
		<g>
			<g>
				<path class="st0" d="M1560.6,669.8V320.4H1485l-250.8,357.1v54.8h256.3V879h70.1V732.2h57v-62.4H1560.6z M1490.5,674.1h-187.3
					l187.3-273.8V674.1z"/>
			</g>
			<g>
				<path class="st1" d="M1564.6,883h-78.2V736.2h-256.3v-60.1l0.7-1l252-358.8h81.7v349.4h57v70.5h-57V883z M1494.5,874.9h62V728.2
					h57v-54.4h-57V324.4h-69.4l-248.9,354.3v49.5h256.3V874.9z M1494.5,678.2h-199l199-290.9V678.2z M1310.8,670.1h175.6V413.4
					L1310.8,670.1z"/>
			</g>
		</g>
	</g>
	<g id="Stars_1_">
		<g>
			<g>
				<path class="st2" d="M1517,132.7l-11.4-2.5l-2.6-11.4c-0.1-0.4-0.5-0.7-0.9-0.7c-0.4,0-0.8,0.3-0.9,0.7l-2.6,11.5l-11.4,2.7
					c-0.4,0.1-0.7,0.5-0.7,0.9c0,0.4,0.3,0.8,0.7,0.9l11.4,2.5l2.6,11.4c0.1,0.4,0.5,0.7,0.9,0.7c0.4,0,0.8-0.3,0.9-0.7l2.6-11.5
					l11.4-2.7c0.4-0.1,0.7-0.5,0.7-0.9C1517.7,133.2,1517.4,132.8,1517,132.7z"/>
			</g>
		</g>
		<g>
			<g>
				<path class="st2" d="M556.4,134.4L545,132l-2.6-11.4c-0.1-0.4-0.5-0.7-0.9-0.7s-0.8,0.3-0.9,0.7l-2.6,11.5l-11.4,2.7
					c-0.4,0.1-0.7,0.5-0.7,0.9s0.3,0.8,0.7,0.9l11.4,2.5l2.6,11.4c0.1,0.4,0.5,0.7,0.9,0.7s0.8-0.3,0.9-0.7l2.6-11.5l11.4-2.7
					c0.4-0.1,0.7-0.5,0.7-0.9C557.1,134.9,556.8,134.5,556.4,134.4z"/>
			</g>
		</g>
		<g>
			<g>
				<path class="st2" d="M1444.6,65.5l-7.5-1.6l-1.7-7.5c-0.1-0.3-0.3-0.5-0.6-0.5c-0.3,0-0.5,0.2-0.6,0.5l-1.7,7.5l-7.5,1.8
					c-0.3,0.1-0.4,0.3-0.4,0.6c0,0.3,0.2,0.5,0.5,0.6l7.5,1.6l1.7,7.5c0.1,0.3,0.3,0.5,0.6,0.5c0.3,0,0.5-0.2,0.6-0.5l1.7-7.5
					l7.5-1.8c0.3-0.1,0.4-0.3,0.4-0.6S1444.9,65.6,1444.6,65.5z"/>
			</g>
		</g>
	</g>
	<g id="UFO_1_">
		<g>
			<g class="st3">
				<polygon class="st4" points="1395.7,879 631.2,879 838.3,320.4 1189.8,320.4 				"/>
			</g>
			<g>
				<path class="st1" d="M1401.5,883H625.4l210.2-566.7h357.1l1,2.6L1401.5,883z M637,874.9h752.9l-203-550.5H841.1L637,874.9z"/>
			</g>
		</g>
		<g>
			<g class="st5">
				<path class="st6" d="M1198.5,170.5H831.8c19.9-72.9,94.4-127,183.3-127S1178.6,97.7,1198.5,170.5z"/>
			</g>
			<g>
				<path class="st0" d="M1203.8,174.6H826.5l1.4-5.1c10-36.5,33.9-69.5,67.3-93.1c34.4-24.2,75.8-36.9,119.9-36.9
					s85.5,12.8,119.9,36.9c33.5,23.5,57.4,56.6,67.3,93.1L1203.8,174.6z M837.2,166.5h355.9c-21.9-70.3-94.2-118.9-177.9-118.9
					S859.1,96.2,837.2,166.5z"/>
			</g>
		</g>
		<g>
			<g>
				<ellipse class="st1" cx="1014.1" cy="235.9" rx="411.9" ry="102.3"/>
			</g>
			<g>
				<path class="st0" d="M1014.1,342.3c-110.3,0-214.1-10.7-292.2-30.1c-38.2-9.5-68.3-20.6-89.3-33c-22.8-13.4-34.4-28-34.4-43.3
					s11.6-29.9,34.4-43.3c21.1-12.4,51.1-23.5,89.3-33c78.1-19.4,181.9-30.1,292.2-30.1s214.1,10.7,292.2,30.1
					c38.2,9.5,68.3,20.6,89.3,33c22.8,13.4,34.4,28,34.4,43.3s-11.6,29.9-34.4,43.3c-21.1,12.4-51.1,23.5-89.3,33
					C1228.2,331.6,1124.4,342.3,1014.1,342.3z M1014.1,137.6c-109.7,0-212.8,10.6-290.3,29.9C649.1,186,606.2,211,606.2,235.9
					s42.9,49.9,117.6,68.5c77.5,19.3,180.6,29.9,290.3,29.9s212.8-10.6,290.3-29.9c74.7-18.6,117.6-43.5,117.6-68.5
					s-42.9-49.9-117.6-68.5C1226.8,148.2,1123.7,137.6,1014.1,137.6z"/>
			</g>
		</g>
		<g>
			<g>
				<path class="st7" d="M809.4,269.4c18.2-14.5,72.4-44.3,210.2-45.2c0,0,158.2,7.5,194.1,44.7c3.9,4,4.7,10,2,14.9l-23.5,42.7
					l-360.4,1.2l-25.3-42C803.2,280.3,804.5,273.3,809.4,269.4z"/>
			</g>
			<g>
				<path class="st0" d="M829.5,331.7L803,287.8c-4.3-7.1-2.6-16.4,3.9-21.6c21.1-16.8,76.9-45.2,212.7-46.1l0.2,0
					c6.5,0.3,160.2,8,196.8,46c5.1,5.3,6.2,13.2,2.7,19.6l-24.7,44.8L829.5,331.7z M809.4,269.4l2.5,3.2c-3.3,2.7-4.2,7.4-2,11.1
					l24.2,40l355.8-1.2l22.4-40.7c1.8-3.3,1.3-7.4-1.4-10.1c-34-35.2-186.4-43.2-191.3-43.5c-138.3,0.9-191.2,31.3-207.6,44.3
					L809.4,269.4z"/>
			</g>
		</g>
		<g>
			<g>
				<ellipse class="st8" cx="1011.3" cy="323.7" rx="180.3" ry="41"/>
			</g>
			<g>
				<path class="st2" d="M1011.3,368.8c-89.4,0-184.4-15.8-184.4-45c0-29.3,95-45,184.4-45s184.4,15.8,184.4,45
					C1195.7,353,1100.7,368.8,1011.3,368.8z M1011.3,286.8c-47.9,0-92.9,4.2-126.6,11.9C848,307,835,317.1,835,323.7
					s13.1,16.7,49.7,25.1c33.8,7.7,78.7,11.9,126.6,11.9s92.9-4.2,126.6-11.9c36.6-8.3,49.7-18.4,49.7-25.1s-13.1-16.7-49.7-25.1
					C1104.1,291,1059.2,286.8,1011.3,286.8z"/>
			</g>
		</g>
		<g>
			<g>
				<ellipse transform="matrix(0.5 -0.866 0.866 0.5 183.3513 767.477)" class="st6" cx="756.3" cy="225" rx="17.3" ry="21.6"/>
			</g>
			<g>
				<path class="st0" d="M760.2,247.4c-4.9,0-10-1.4-14.5-4c-5.8-3.3-10.2-8.3-12.4-14c-2.4-6-2-12.1,0.9-17.2s8.1-8.4,14.5-9.4
					c6.1-0.9,12.6,0.4,18.4,3.7c5.8,3.3,10.2,8.3,12.4,14c2.4,6,2,12.1-0.9,17.2c-2.9,5.1-8.1,8.4-14.5,9.4
					C762.8,247.3,761.5,247.4,760.2,247.4z M752.4,210.5c-0.9,0-1.8,0.1-2.6,0.2c-3.9,0.6-7,2.5-8.7,5.4c-1.7,2.9-1.8,6.6-0.4,10.2
					c1.6,4,4.7,7.6,8.9,10c4.2,2.4,8.9,3.4,13.1,2.8c3.9-0.6,7-2.5,8.7-5.4l0,0c1.7-2.9,1.8-6.6,0.4-10.2c-1.6-4-4.7-7.6-8.9-10
					C759.6,211.6,755.9,210.5,752.4,210.5z"/>
			</g>
		</g>
		<g>
			<g>
				
					<ellipse transform="matrix(0.8364 -0.5481 0.5481 0.8364 39.7964 511.7221)" class="st6" cx="877.2" cy="189.2" rx="17.3" ry="21.6"/>
			</g>
			<g>
				<path class="st0" d="M881,213.6c-2.3,0-4.6-0.4-6.9-1.1c-5.8-1.9-11.1-6-14.7-11.6c-7.7-11.8-6-26.7,3.8-33.1
					c4.9-3.2,11-3.9,17.1-1.9c5.8,1.9,11.1,6,14.7,11.6c3.7,5.6,5.4,12,4.8,18.1c-0.6,6.4-3.7,11.8-8.6,15l0,0
					C888.2,212.6,884.7,213.6,881,213.6z M873.4,172.8c-2.1,0-4.1,0.6-5.8,1.7c-6.1,4-6.8,13.8-1.5,21.9c2.7,4.1,6.4,7,10.5,8.4
					c3.8,1.2,7.4,0.9,10.2-0.9l0,0c2.8-1.8,4.6-5,4.9-9c0.4-4.3-0.8-8.9-3.5-12.9c-2.7-4.1-6.4-7-10.5-8.4
					C876.3,173.1,874.8,172.8,873.4,172.8z"/>
			</g>
		</g>
		<g>
			<g>
				<ellipse transform="matrix(0.866 -0.5 0.5 0.866 57.4873 664.4487)" class="st6" cx="1268.6" cy="225" rx="21.6" ry="17.3"/>
			</g>
			<g>
				<path class="st0" d="M1264.7,247.4c-1.3,0-2.6-0.1-3.8-0.3c-6.4-1-11.5-4.3-14.5-9.4l0,0c-2.9-5.1-3.2-11.2-0.9-17.2
					c2.2-5.7,6.6-10.7,12.4-14c5.8-3.3,12.3-4.7,18.4-3.7c6.4,1,11.5,4.3,14.5,9.4s3.3,11.2,0.9,17.2c-2.2,5.7-6.6,10.7-12.4,14
					C1274.7,246,1269.6,247.4,1264.7,247.4z M1272.5,210.5c-3.5,0-7.1,1-10.5,2.9c-4.2,2.4-7.4,6-8.9,10c-1.4,3.7-1.3,7.3,0.4,10.2
					l0,0c1.7,2.9,4.8,4.8,8.7,5.4c4.3,0.6,8.9-0.3,13.1-2.8c4.2-2.4,7.4-6,8.9-10c1.4-3.7,1.3-7.3-0.4-10.2
					c-1.7-2.9-4.8-4.8-8.7-5.4C1274.3,210.6,1273.4,210.5,1272.5,210.5z"/>
			</g>
		</g>
		<g>
			<g>
				
					<ellipse transform="matrix(0.5481 -0.8364 0.8364 0.5481 360.4458 1045.5166)" class="st6" cx="1147.8" cy="189.2" rx="21.6" ry="17.3"/>
			</g>
			<g>
				<path class="st0" d="M1143.9,213.6c-3.6,0-7.1-1-10.2-3c-9.8-6.4-11.5-21.3-3.8-33.1c7.7-11.8,22-16.2,31.9-9.7
					c9.8,6.4,11.5,21.3,3.8,33.1C1160.3,209,1151.9,213.6,1143.9,213.6z M1151.5,172.8c-5.2,0-11,3.3-14.8,9.1
					c-5.3,8.1-4.6,17.9,1.5,21.9l0,0c6.1,4,15.4,0.7,20.7-7.4c5.3-8.1,4.7-17.9-1.5-21.9C1155.6,173.4,1153.6,172.8,1151.5,172.8z"
					/>
			</g>
		</g>
		<g>
			<g>
				<circle class="st6" cx="1013.4" cy="176.1" r="20.3"/>
			</g>
			<g>
				<path class="st0" d="M1013.4,200.5c-13.4,0-24.4-10.9-24.4-24.4c0-13.4,10.9-24.4,24.4-24.4c13.4,0,24.4,10.9,24.4,24.4
					C1037.8,189.5,1026.9,200.5,1013.4,200.5z M1013.4,159.8c-9,0-16.3,7.3-16.3,16.3s7.3,16.3,16.3,16.3s16.3-7.3,16.3-16.3
					S1022.4,159.8,1013.4,159.8z"/>
			</g>
		</g>
		<g>
			<g>
				
					<rect x="802.5" y="130.5" transform="matrix(0.6221 -0.7829 0.7829 0.6221 147.7294 707.2379)" class="st0" width="8.1" height="140.1"/>
			</g>
		</g>
		<g>
			<g>
				
					<rect x="699.1" y="153.4" transform="matrix(0.2123 -0.9772 0.9772 0.2123 302.4025 889.8026)" class="st0" width="8.1" height="207.8"/>
			</g>
		</g>
		<g>
			<g>
				
					<rect x="934.2" y="133.3" transform="matrix(0.9412 -0.3379 0.3379 0.9412 -6.1819 327.6815)" class="st0" width="8.1" height="96.7"/>
			</g>
		</g>
		<g>
			<g>
				
					<rect x="1035.7" y="178" transform="matrix(0.3529 -0.9357 0.9357 0.3529 531.7637 1132.8793)" class="st0" width="98.5" height="8.1"/>
			</g>
		</g>
		<g>
			<g>
				
					<rect x="1145.3" y="196.1" transform="matrix(0.7887 -0.6148 0.6148 0.7887 134.0863 790.361)" class="st0" width="142.7" height="8.1"/>
			</g>
		</g>
		<g>
			<g>
				
					<rect x="1215.3" y="251.6" transform="matrix(0.9814 -0.1919 0.1919 0.9814 -24.4934 258.2923)" class="st0" width="211.9" height="8.1"/>
			</g>
		</g>
		<g>
			<g>
				<path class="st2" d="M814,297.2l-5-6.3c2.1-1.7,53.1-41.1,205.7-42.4l0.1,8.1C865.5,257.8,814.5,296.8,814,297.2z"/>
			</g>
		</g>
		<g>
			<g>
				<path class="st2" d="M1207.3,296.9c-0.3-0.3-31-28.4-132.6-37.9l0.8-8c105,9.9,136.2,38.9,137.4,40.1L1207.3,296.9l2.8-2.9
					L1207.3,296.9z"/>
			</g>
		</g>
		<g>
			<g>
				
					<rect x="838.8" y="289.6" transform="matrix(0.8705 -0.4922 0.4922 0.8705 -37.8581 453.5574)" class="st2" width="8.1" height="18.3"/>
			</g>
		</g>
		<g>
			<g>
				
					<rect x="875.7" y="278.2" transform="matrix(0.9732 -0.2298 0.2298 0.9732 -42.366 209.8228)" class="st2" width="8.1" height="17.2"/>
			</g>
		</g>
		<g>
			<g>
				
					<rect x="926.6" y="269.7" transform="matrix(0.9922 -0.1247 0.1247 0.9922 -27.4499 118.2343)" class="st2" width="8.1" height="17.3"/>
			</g>
		</g>
		<g>
			<g>
				
					<rect x="1100.9" y="276.6" transform="matrix(0.2819 -0.9594 0.9594 0.2819 527.5688 1266.1559)" class="st2" width="17.5" height="8.1"/>
			</g>
		</g>
		<g>
			<g>
				
					<rect x="1132.5" y="282.5" transform="matrix(0.345 -0.9386 0.9386 0.345 478.4972 1258.7568)" class="st2" width="17.2" height="8.1"/>
			</g>
		</g>
		<g>
			<g>
				
					<rect x="1170.2" y="295.1" transform="matrix(0.4961 -0.8683 0.8683 0.4961 334.0994 1173.8358)" class="st2" width="16.3" height="8.1"/>
			</g>
		</g>
		<g>
			<g>
				<polygon class="st0" points="919.9,397.4 914.6,397.4 914.6,293 920.3,292 				"/>
			</g>
		</g>
		<g>
			<g>
				<rect x="975" y="333.9" class="st0" width="5.4" height="48.1"/>
			</g>
		</g>
		<g>
			<g>
				<rect x="859.1" y="682.9" class="st0" width="5.4" height="48.1"/>
			</g>
		</g>
		<g>
			<g>
				<rect x="1065" y="320.4" class="st0" width="5.4" height="145.5"/>
			</g>
		</g>
		<g>
			<g>
				<polygon class="st0" points="1119.7,406 1114.3,406 1114.1,293.7 1119.7,295 				"/>
			</g>
		</g>
		<g>
			<g>
				<rect x="1157.5" y="382" class="st0" width="5.4" height="87.6"/>
			</g>
		</g>
		<g>
			<g>
				<rect x="1082.3" y="733.5" class="st0" width="5.4" height="87.6"/>
			</g>
		</g>
		<g>
			<g>
				<path class="st0" d="M971.3,67.6l-1.4-7.9c5.7-1,11.5-1.8,17.4-2.3l0.6,8C982.3,65.9,976.7,66.6,971.3,67.6z"/>
			</g>
		</g>
		<g>
			<g>
				<path class="st0" d="M861.4,143.5l-7,0c1.2-2.6,31.4-63.4,105.2-81.7l1.9,7.8C891.6,87,861.7,142.9,861.4,143.5z"/>
			</g>
		</g>
	</g>
	<g id="Cat_1_">
		<g>
			<g>
				<g>
					<g>
						<path class="st9" d="M991.1,694c0.2,0.6,5.1,14.5,2.5,32.1c-2.5,16.3-12.1,39-43.8,54.5l-1.2,0.6
							c-15.4,7.4-23.2,14.3-17.7,27.8c2.6,6.3,8.4,10.9,15.5,12.4c4.3,0.9,8.4,0.7,12.4-0.4c2.5-0.7,5.3,0.5,6.4,2.9l0,0
							c1.5,3.1-0.1,6.8-3.4,7.7c-5.6,1.6-11.6,1.8-17.6,0.6c-10.7-2.2-19.5-9.3-23.5-19.1c-4.5-11-3-21.1,4.3-29.3
							c5.7-6.3,13.6-10.1,18.8-12.7l1.2-0.6c22-10.7,34.7-26.3,37.7-46.3c2.2-14.9-1.9-26.6-1.9-26.7L991.1,694z"/>
					</g>
					<g>
						<path class="st2" d="M951.8,835.8c-2.7,0-5.5-0.3-8.2-0.8c-11.6-2.4-21.1-10.1-25.5-20.7c-4.9-12-3.3-23.1,4.8-32.1
							c6-6.7,14.2-10.7,19.6-13.3l1.2-0.6c21.2-10.3,33.3-25.2,36.2-44.2c2.1-14.1-1.8-25.3-1.8-25.4l-0.9-2.5l15.4-5.6l0.9,2.5
							c0.2,0.6,5.3,15.1,2.6,33.4c-2.6,17-12.5,40.6-45.3,56.6l-1.2,0.6c-16.6,8-20.6,13.9-16.3,24.3c2.2,5.5,7.3,9.5,13.5,10.8
							c3.8,0.8,7.6,0.7,11.1-0.3c3.8-1.1,7.8,0.7,9.6,4.3c1.1,2.2,1.1,4.7,0.1,7c-1,2.2-2.9,3.9-5.2,4.5
							C959,835.3,955.5,835.8,951.8,835.8z M984,699.4c1.1,4.4,3,14.1,1.3,25.5c-3.1,20.9-16.3,37.1-39.2,48.3l-1.2,0.6
							c-5,2.4-12.6,6.1-17.9,12c-6.6,7.3-7.9,16.5-3.8,26.4c3.6,8.9,11.7,15.4,21.6,17.5c5.6,1.1,11.1,1,16.4-0.6
							c1.1-0.3,1.5-1.1,1.7-1.5c0.3-0.8,0.3-1.7,0-2.4c-0.6-1.2-2-1.8-3.3-1.5c-4.3,1.3-8.9,1.4-13.6,0.4c-8-1.7-14.5-6.9-17.4-14
							c-7-17,6.1-25,19-31.2l1.2-0.6c30.7-15,39.9-36.8,42.3-52.5c1.9-12.8-0.3-23.5-1.5-28.2L984,699.4z"/>
					</g>
				</g>
			</g>
			<g>
				<g>
					<path class="st9" d="M1009.2,731.1l-6.1,35.2c-1,5.8,2.9,11.4,8.7,12.4s11.4-2.9,12.4-8.7l6.1-35.4l21.9-69
						c0,0-26.8-18.1-42.5-6.1C995.8,670.1,991.4,709.6,1009.2,731.1z"/>
				</g>
				<g>
					<path class="st2" d="M1013.7,781.5c-0.8,0-1.5-0.1-2.3-0.2c-7.3-1.3-12.2-8.2-10.9-15.5l5.9-34c-8.9-11.5-13-28.5-11.1-45.8
						c1.5-12.9,6.3-23.7,12.8-28.7c17.1-13.1,44.5,5.2,45.7,6l1.7,1.1l-22.5,70.8l-6.1,35.2c-0.6,3.5-2.6,6.6-5.5,8.7
						C1019.1,780.7,1016.4,781.5,1013.7,781.5z M1023,658c-4.2,0-8.3,1-11.7,3.6c-5.3,4.1-9.4,13.7-10.7,25
						c-1.9,16.4,2.1,32.4,10.6,42.8l0.8,1l-6.3,36.4c-0.8,4.4,2.2,8.5,6.5,9.3c4.4,0.7,8.5-2.2,9.3-6.5l6.2-35.7l21.3-67
						C1044.8,664.2,1033.4,658,1023,658z"/>
				</g>
			</g>
			<g>
				<g>
					<path class="st9" d="M930.7,664.3l-6.5,37.8c-1,5.8,2.9,11.4,8.7,12.4l0,0c5.8,1,11.4-2.9,12.4-8.7l6.5-37.8L930.7,664.3z"/>
				</g>
				<g>
					<path class="st2" d="M934.7,717.3c-0.8,0-1.5-0.1-2.3-0.2c-7.3-1.3-12.2-8.2-10.9-15.5l7-40.4l26.4,4.6l-7,40.4
						c-0.6,3.5-2.6,6.6-5.5,8.7C940.2,716.4,937.5,717.3,934.7,717.3z M932.9,667.4l-6.1,35.1c-0.8,4.4,2.2,8.5,6.5,9.3
						c2.1,0.4,4.2-0.1,6-1.4c1.7-1.2,2.9-3.1,3.3-5.2l6.1-35.1L932.9,667.4z"/>
				</g>
			</g>
			<g>
				<g>
					<path class="st10" d="M931.5,696l-2.9,16.7L931.5,696z"/>
				</g>
				<g>
					
						<rect x="921.6" y="702.3" transform="matrix(0.1699 -0.9855 0.9855 0.1699 77.9483 1501.1742)" class="st2" width="17" height="4"/>
				</g>
			</g>
			<g>
				<g>
					<path class="st10" d="M937.4,698.4l-2.8,16.3L937.4,698.4z"/>
				</g>
				<g>
					
						<rect x="927.7" y="704.5" transform="matrix(0.1699 -0.9855 0.9855 0.1699 80.6738 1508.8607)" class="st2" width="16.6" height="4"/>
				</g>
			</g>
			<g>
				<g>
					<path class="st10" d="M1019.3,761.7l-2.9,16.7L1019.3,761.7z"/>
				</g>
				<g>
					
						<rect x="1009.4" y="768.1" transform="matrix(0.1699 -0.9855 0.9855 0.1699 85.9827 1642.2743)" class="st2" width="17" height="4"/>
				</g>
			</g>
			<g>
				<g>
					<path class="st10" d="M1012.9,762l-2.8,16.3L1012.9,762z"/>
				</g>
				<g>
					
						<rect x="1003.2" y="768.2" transform="matrix(0.1699 -0.9855 0.9855 0.1699 80.6219 1636.1293)" class="st2" width="16.6" height="4"/>
				</g>
			</g>
			<g>
				<g>
					<path class="st9" d="M1071.3,588.8c0.1,1.5,0.3,2.9,0.4,4.4c1.2,15.5,0.9,28.8-0.6,40.4c-7.5,59.8-44.4,71.2-44.4,71.2
						c-71.3,17.9-98.4-37.8-98.4-37.8c-3.4-9.6-4.4-19.9-4-30.2c0.6-14,3.9-28,7.9-40.2c7.1-21.7,16.2-37.6,16.2-37.6
						c1.9-24.3,18.4-59.6,18.4-59.6c1.2-21,4.6-32.9,4.6-32.9c12.1,2.7,27,15.3,27,15.3c23.2-2.6,49.9,11.2,49.9,11.2
						c12-9.3,39.2-7.4,39.2-7.4c0,15.6-10.8,35.1-10.8,35.1C1081.5,546.5,1071.3,588.8,1071.3,588.8z"/>
				</g>
				<g>
					<path class="st2" d="M999.7,711c-23.1,0-39.7-8.1-50.6-16.2c-16-11.9-23-26-23.3-26.6l-0.1-0.3c-3.2-9.2-4.6-19.7-4.1-31.2
						c0.5-12.5,3.2-26.3,8-40.9c6.4-19.7,14.5-34.6,16.2-37.6c2.1-23.2,16.3-55,18.4-59.4c1.2-20.7,4.5-32.5,4.7-33l0.7-2.4l2.5,0.6
						c11,2.5,23.8,12.3,27.3,15.1c20.6-1.8,42.8,8.1,48.8,10.9c13.2-8.7,38.5-7.1,39.7-7l2.5,0.2l0,2.5c0,14.4-8.5,31.5-10.6,35.6
						c4.2,25-4.4,63.1-5.6,67.9c0.1,1.3,0.2,2.7,0.3,4c1.2,14.8,1,28.5-0.6,40.9c-7.6,60.8-44.7,73-46.2,73.5l-0.1,0
						C1017.3,709.9,1008.1,711,999.7,711z M930.8,665.9c0.7,1.4,7.5,14.1,21.8,24.6c20.1,14.9,44.8,18.8,73.4,11.6
						c1.5-0.5,35.4-12.9,42.4-69c1.5-12.1,1.7-25.5,0.6-39.8c-0.1-1.3-0.2-2.7-0.4-4l-0.1-0.8l0.1-0.4c0.1-0.4,10.1-42,5.4-67
						l-0.2-0.9l0.5-0.8c0.1-0.2,9.3-17,10.3-31.2c-6.9-0.2-25.8,0-34.8,7l-1.4,1.1l-1.5-0.8c-0.3-0.1-26.2-13.4-48.3-11l-1.1,0.1
						l-0.9-0.7c-0.1-0.1-12.5-10.5-23.3-14c-1,4.5-3,14.9-3.9,29.8l0,0.5l-0.2,0.5c-0.2,0.3-16.3,35.1-18.2,58.7l0,0.6l-0.3,0.5
						c-0.1,0.2-9.1,16-16,37.1c-4.6,14.2-7.2,27.5-7.7,39.5C926.6,647.7,927.8,657.4,930.8,665.9z"/>
				</g>
			</g>
			<g>
				<g>
					<path class="st9" d="M1062.3,558c0,0,2.3-47.6-12.2-55.9c0,0-15.2-4.8-12.6,14.9c0,0,1.2,16.6-2.1,31.4L1062.3,558z"/>
				</g>
				<g>
					<path class="st2" d="M1065,558.2l-5.4-0.3c0.6-12.7-0.2-46.8-10.6-53.2c-1-0.2-4.6-1-6.8,0.9c-2.1,1.7-2.8,5.6-2,11.1l0,0.2
						c0.1,0.7,1.2,17.1-2.2,32.2l-5.2-1.2c3.1-13.8,2.2-29.3,2.1-30.5c-1-7.5,0.3-12.8,3.9-15.8c4.9-4.1,11.8-2,12.1-1.9l0.5,0.2
						C1066.9,508.6,1065.2,553.1,1065,558.2z"/>
				</g>
			</g>
			<g>
				<g>
					<path class="st9" d="M981.9,536c0,0,1-13.9,7-31c0,0,5.4-11.5-4.2-15.8c0,0-16.5-6.6-27,32.5L981.9,536z"/>
				</g>
				<g>
					<path class="st2" d="M984.6,536.2l-5.4-0.4c0-0.6,1.1-14.5,7.1-31.7l0.1-0.3c0,0,2.2-4.8,0.8-8.6c-0.6-1.6-1.8-2.8-3.6-3.6
						c-0.4-0.1-3-0.8-6.5,1c-4.7,2.5-11.5,9.6-16.8,29.7l-5.2-1.4c4.8-17.8,11.4-29,19.8-33.2c5.8-2.9,10.2-1.3,10.7-1.1
						c3.3,1.5,5.5,3.7,6.6,6.7c2,5.5-0.5,11.5-0.9,12.6C985.7,522.5,984.6,536.1,984.6,536.2z"/>
				</g>
			</g>
			<g>
				<g>
					
						<ellipse transform="matrix(0.1701 -0.9854 0.9854 0.1701 320.4642 1429.5021)" class="st2" cx="1008.9" cy="524.5" rx="4.1" ry="5.9"/>
				</g>
			</g>
			<g>
				<g>
					<path class="st9" d="M990.8,538.2c0,0,14.1,3.8,17.4-11.7L990.8,538.2z"/>
				</g>
				<g>
					<path class="st2" d="M994.5,541.3c-2.5,0-4.3-0.5-4.4-0.5l1.4-5.2c0,0,4.9,1.2,8.9-1.2c2.6-1.6,4.3-4.4,5.2-8.5l5.3,1.1
						c-1.2,5.6-3.8,9.6-7.7,12C1000.1,540.8,997,541.3,994.5,541.3z"/>
				</g>
			</g>
			<g>
				<g>
					<path class="st9" d="M1021.4,543.5c0,0-14.5-1.1-12.5-16.9L1021.4,543.5z"/>
				</g>
				<g>
					<path class="st2" d="M1021.2,546.2c-0.3,0-7.3-0.6-11.7-6c-2.9-3.5-4-8.2-3.3-13.9l5.3,0.7c-0.5,4.1,0.2,7.4,2.1,9.8
						c2.9,3.6,7.9,4.1,7.9,4.1L1021.2,546.2z"/>
				</g>
			</g>
			<g>
				<g>
					<circle class="st2" cx="1029.5" cy="515.6" r="5.2"/>
				</g>
			</g>
			<g>
				<g>
					<circle class="st2" cx="995.4" cy="507.9" r="5.2"/>
				</g>
			</g>
		</g>
		<g>
			<g>
				<circle class="st10" cx="1001.2" cy="603.3" r="11.1"/>
			</g>
			<g>
				<path class="st2" d="M1001.2,617c-7.6,0-13.8-6.2-13.8-13.8c0-7.6,6.2-13.8,13.8-13.8s13.8,6.2,13.8,13.8
					C1015,610.9,1008.8,617,1001.2,617z M1001.2,594.8c-4.6,0-8.4,3.8-8.4,8.4c0,4.6,3.8,8.4,8.4,8.4c4.6,0,8.4-3.8,8.4-8.4
					C1009.6,598.6,1005.8,594.8,1001.2,594.8z"/>
			</g>
		</g>
		<g>
			<g>
				<path class="st2" d="M1027.7,600c-22.7,0-40.2-5.7-52.6-11.8c-15.5-7.7-25.3-17.2-29.8-22.2c-1.6-1.8-1.3-4.6,0.6-6l0,0
					c1.7-1.2,4-1,5.4,0.6c4,4.5,13.2,13.4,27.8,20.6c25.6,12.6,56.6,14.2,89.9,4.6c2.1-0.6,4.3,0.6,4.9,2.7l0,0
					c0.7,2.2-0.6,4.5-2.8,5.1C1055.1,598.1,1040.6,600,1027.7,600z"/>
			</g>
		</g>
	</g>
</g>
<text transform="matrix(1.0287 0 0 1 562.9995 1017.7666)" class="st11 st12 st13">Page Not Found</text>
</svg>
